PathFileType	4	(X/Y/Z)	/Users/itak/Documents/Research/Walk-IL/dataset/trc/00295_00010.trc
DataRate	CameraRate	NumFrames	NumMarkers	Units	OrigDataRate	OrigDataStartFrame	OrigNumFrames
100.000000	100.000000	4	54	mm	100.000000	578	661
Frame#	Time	RPSI			LPSI			L3			STRN			T10			C7			CLAV			RBAK			LBAK			LSHO			LUPA			LAEL			LAOL			LWTS			LWPS			LFRA			LHPS			RSHO			RUPA			RAEL			RAOL			RWTS			RWPS			RFRA			RIFD			RHTS			RHPS			RBHD			LFHD			RFHD			LBHD			LHIP			RHIP			RASI			LASI			LKNE			LTHI			LANK			LTIP			LTOE			LMT1			LMT5			LHEE			RKNE			RTHI			RANK			RTIP			RTOE			RMT1			RMT5			RHEE			LIFD			LHTS			*53			
		X1	Y1	Z1	X2	Y2	Z2	X3	Y3	Z3	X4	Y4	Z4	X5	Y5	Z5	X6	Y6	Z6	X7	Y7	Z7	X8	Y8	Z8	X9	Y9	Z9	X10	Y10	Z10	X11	Y11	Z11	X12	Y12	Z12	X13	Y13	Z13	X14	Y14	Z14	X15	Y15	Z15	X16	Y16	Z16	X17	Y17	Z17	X18	Y18	Z18	X19	Y19	Z19	X20	Y20	Z20	X21	Y21	Z21	X22	Y22	Z22	X23	Y23	Z23	X24	Y24	Z24	X25	Y25	Z25	X26	Y26	Z26	X27	Y27	Z27	X28	Y28	Z28	X29	Y29	Z29	X30	Y30	Z30	X31	Y31	Z31	X32	Y32	Z32	X33	Y33	Z33	X34	Y34	Z34	X35	Y35	Z35	X36	Y36	Z36	X37	Y37	Z37	X38	Y38	Z38	X39	Y39	Z39	X40	Y40	Z40	X41	Y41	Z41	X42	Y42	Z42	X43	Y43	Z43	X44	Y44	Z44	X45	Y45	Z45	X46	Y46	Z46	X47	Y47	Z47	X48	Y48	Z48	X49	Y49	Z49	X50	Y50	Z50	X51	Y51	Z51	X52	Y52	Z52	X53	Y53	Z53	X54	Y54	Z54	

579	5.78	537.4774780273438	997.2023315429688	799.2711791992188	599.267333984375	996.957763671875	963.455078125	553.135986328125	1066.100219726562	880.3275146484375	339.0255126953125	1251.64013671875	979.71044921875	571.48193359375	1176.278442382812	865.8035278320312	555.2138061523438	1422.6884765625	898.3946533203125	404.3898010253906	1348.300415039062	957.7754516601562	560.09912109375	1286.896484375	806.7980346679688	610.5706787109375	1379.551635742188	984.2747192382812	553.0938720703125	1392.193359375	1069.519897460938	614.232666015625	1278.362670898438	1125.35546875	624.4518432617188	1079.876708984375	1155.398071289062	638.0292358398438	1056.5830078125	1073.20361328125	523.6239624023438	867.6979370117188	1197.394409179688	590.1879272460938	857.5696411132812	1226.894287109375	617.34619140625	979.5038452148438	1184.999145507812	581.8455810546875	771.7825927734375	1242.19580078125	427.4692993164062	1413.413818359375	783.7002563476562	404.8638305664062	1361.320434570312	716.2185668945312	411.4398193359375	1104.162841796875	640.1907348632812	472.5649719238281	1091.508666992188	712.0126342773438	337.5041809082031	874.6306762695312	702.63134765625	352.7571105957031	877.7164916992188	618.0311279296875	386.6927185058594	1036.825073242188	629.5924682617188	350.9695434570312	690.607177734375	691.5971069335938	314.5010070800781	756.4768676757812	686.94189453125	339.552001953125	763.0975341796875	620.5890502929688	495.3471984863281	1599.080932617188	867.58935546875	370.3639526367188	1598.304321289062	1037.7802734375	339.9453125	1601.855712890625	950.268310546875	543.843505859375	1583.776123046875	1004.997131347656	567.823974609375	954.2755126953125	1079.720825195312	406.0982055664062	945.15283203125	740.3563842773438	319.5048217773438	953.2014770507812	848.1068725585938	422.0317993164062	959.0732421875	1078.83642578125	442.5623779296875	495.7202453613281	1114.90966796875	477.6477661132812	634.7113647460938	1118.559204101562	489.5285034179688	41.96668243408203	1096.494384765625	465.0068664550781	262.0119934082031	1114.880615234375	272.7764282226562	41.99467086791992	1095.065063476562	328.6416625976562	31.88876914978027	1038.44873046875	374.9773559570312	40.46338272094727	1141.66162109375	515.944091796875	38.13570404052734	1026.706909179688	347.4659423828125	483.7708740234375	752.4999389648438	342.6717224121094	739.0109252929688	757.7933349609375	622.5170288085938	200.1823120117188	563.7972412109375	397.3506774902344	374.6260681152344	721.2357177734375	598.3444213867188	27.42755699157715	654.3323364257812	645.213134765625	74.89109039306641	660.7481689453125	577.5619506835938	102.8861846923828	569.6218872070312	676.0554809570312	239.6747894287109	583.8202514648438	517.1093139648438	686.4686279296875	1235.55810546875	515.5713500976562	775.4133911132812	1243.779663085938	nan	nan	nan	
580	5.79	538.3267822265625	996.8275756835938	804.6951293945312	597.2068481445312	997.1112670898438	969.9225463867188	552.4783935546875	1066.696899414062	886.4531860351562	335.7734069824219	1251.568603515625	982.1497802734375	570.777587890625	1177.178955078125	872.632080078125	553.0570678710938	1423.43212890625	905.5510864257812	401.3116149902344	1348.432739257812	961.754150390625	560.321533203125	1287.891235351562	813.6918334960938	606.7461547851562	1380.287475585938	992.4719848632812	547.521728515625	1392.624145507812	1076.506713867188	607.6055908203125	1278.893798828125	1133.688720703125	617.3455810546875	1080.653198242188	1164.4873046875	632.7533569335938	1056.942138671875	1082.744995117188	514.8800048828125	869.6605834960938	1206.367431640625	580.894775390625	859.0927734375	1236.75244140625	609.4732055664062	980.51123046875	1194.53759765625	571.5195922851562	773.5137329101562	1252.67138671875	427.6365966796875	1413.9677734375	788.3202514648438	406.5141906738281	1361.760009765625	720.44189453125	414.5998840332031	1104.7080078125	644.2390747070312	473.9962463378906	1091.694091796875	717.3941650390625	336.5932312011719	876.5965576171875	706.037353515625	353.8415222167969	878.8560180664062	621.7932739257812	389.4901123046875	1037.546020507812	633.2655029296875	345.1112060546875	692.2498168945312	695.5813598632812	310.3091430664062	759.2847290039062	689.6920776367188	337.7654418945312	764.8572387695312	624.2392578125	493.6202392578125	1599.581909179688	874.0234375	365.9685974121094	1598.5517578125	1042.056030273438	337.0647277832031	1602.361083984375	954.2275390625	540.0343627929688	1583.966674804688	1012.043212890625	564.0361938476562	954.554931640625	1085.711059570312	407.5429382324219	945.124267578125	743.8157348632812	319.5003967285156	953.3546752929688	850.1578369140625	417.9866638183594	959.2764892578125	1082.531616210938	440.1215515136719	495.4423217773438	1117.571655273438	474.400634765625	634.77197265625	1122.243041992188	489.4839477539062	41.94080352783203	1096.584106445312	463.8130493164062	261.7550354003906	1116.169921875	272.7511901855469	42.00601577758789	1095.124267578125	328.6039123535156	31.88727569580078	1038.447875976562	374.953369140625	40.41756820678711	1141.688598632812	515.8875732421875	38.27081298828125	1026.770263671875	341.9758911132812	484.7507934570312	758.7324829101562	341.3048400878906	739.68017578125	761.7634887695312	623.72802734375	205.0507049560547	575.4437255859375	393.0403137207031	376.1722717285156	728.3546142578125	592.22314453125	28.19406890869141	659.3439331054688	639.7551879882812	75.75592041015625	670.229736328125	577.9124145507812	107.8230438232422	576.0729370117188	677.0166015625	243.2188110351562	599.0537109375	505.9298095703125	688.60498046875	1245.924682617188	505.247802734375	777.8582153320312	1253.393432617188	nan	nan	nan	
581	5.8	539.1539306640625	996.3558959960938	809.931396484375	595.2010498046875	997.1481323242188	976.115478515625	551.8602905273438	1067.211791992188	892.3953247070312	332.6892700195312	1251.490234375	984.4058227539062	570.1146240234375	1178.039428710938	879.3121337890625	550.9696655273438	1424.119750976562	912.5454711914062	398.3718566894531	1348.55859375	965.527587890625	560.5858764648438	1288.8505859375	820.4682006835938	602.9821166992188	1380.954467773438	1000.473999023438	542.0173950195312	1393.012817382812	1083.255859375	600.9505004882812	1279.387329101562	1141.8046875	610.1640014648438	1081.399291992188	1173.38037109375	627.434814453125	1057.269775390625	1092.137573242188	506.0593566894531	871.476806640625	1214.9814453125	571.5470581054688	860.5547485351562	1246.312744140625	601.517578125	981.4849243164062	1203.856079101562	561.1453857421875	775.1556396484375	1262.715698242188	427.9393920898438	1414.513671875	792.805908203125	408.2773132324219	1362.165771484375	724.5745239257812	417.9283752441406	1105.155883789062	648.405029296875	475.5006408691406	1091.80859375	722.8897705078125	335.6328430175781	878.6239013671875	709.4730834960938	354.9423217773438	879.9739990234375	625.6392211914062	392.4236145019531	1038.199584960938	637.0558471679688	338.8635864257812	694.0624389648438	699.49267578125	305.9923095703125	762.2288208007812	692.3837890625	335.8529357910156	766.6978759765625	627.9050903320312	491.9136657714844	1600.060668945312	880.308837890625	361.598388671875	1598.680786132812	1046.215454101562	334.1701049804688	1602.7294921875	957.9981079101562	536.179443359375	1584.122680664062	1018.952514648438	560.3865356445312	954.7471313476562	1091.4169921875	408.9746704101562	945.0512084960938	747.120361328125	319.5621032714844	953.5006713867188	852.0984497070312	414.0791625976562	959.46435546875	1086.02783203125	437.8332824707031	495.1671142578125	1120.113525390625	471.3179626464844	634.7965087890625	1125.74462890625	489.4478149414062	41.90841674804688	1096.670776367188	462.688720703125	261.5115051269531	1117.408447265625	272.7456970214844	42.03754043579102	1095.181640625	328.5726318359375	31.89660453796387	1038.442993164062	374.9358520507812	40.37790298461914	1141.725708007812	515.8456420898438	38.38248062133789	1026.822387695312	336.7350463867188	485.7705993652344	764.8570556640625	339.970947265625	740.32177734375	765.6119995117188	624.5038452148438	208.9601287841797	587.3378295898438	388.8164367675781	377.6695861816406	735.4404296875	585.8018188476562	29.75571250915527	666.075927734375	634.1033935546875	76.70284271240234	680.4672241210938	577.5308837890625	112.1972961425781	583.9044799804688	677.5831909179688	245.8320159912109	613.9002075195312	494.7754821777344	690.7188720703125	1255.818115234375	494.8945007324219	780.185302734375	1262.57568359375	nan	nan	nan	
582	5.81	539.9358520507812	995.8324584960938	814.986572265625	593.251220703125	997.101806640625	982.038818359375	551.2698974609375	1067.648071289062	898.1546020507812	329.76953125	1251.416259765625	986.498291015625	569.49658203125	1178.851684570312	885.8440551757812	548.9568481445312	1424.746215820312	919.3748779296875	395.5645751953125	1348.677368164062	969.1065063476562	560.8854370117188	1289.762451171875	827.130126953125	599.2823486328125	1381.54638671875	1008.275024414062	536.5963134765625	1393.35595703125	1089.764404296875	594.2853393554688	1279.840942382812	1149.692138671875	602.9239501953125	1082.109619140625	1182.065063476562	622.0729370117188	1057.560302734375	1101.370483398438	497.1480407714844	873.1284790039062	1223.197265625	562.1375732421875	861.9529418945312	1255.5703125	593.4801635742188	982.4254150390625	1212.943359375	550.7333374023438	776.70703125	1272.326782226562	428.3755798339844	1415.048095703125	797.1672973632812	410.1474609375	1362.5498046875	728.6167602539062	421.4019470214844	1105.521240234375	652.65673828125	477.0805053710938	1091.874267578125	728.453857421875	334.6404418945312	880.71875	712.9419555664062	356.0382690429688	881.0762329101562	629.5697631835938	395.4612121582031	1038.798461914062	640.94921875	332.3625793457031	696.0848999023438	703.3440551757812	301.6676025390625	765.2997436523438	695.0460815429688	333.8801879882812	768.6220092773438	631.6052856445312	490.2347412109375	1600.524658203125	886.4519653320312	357.2508239746094	1598.690185546875	1050.22802734375	331.270751953125	1602.963256835938	961.5878295898438	532.2911987304688	1584.250122070312	1025.721801757812	556.8657836914062	954.8682861328125	1096.847412109375	410.3986511230469	944.9497680664062	750.28759765625	319.6710815429688	953.6427612304688	853.9514770507812	410.3215942382812	959.6390991210938	1089.345336914062	435.7280578613281	494.8905944824219	1122.536743164062	468.4104919433594	634.7861328125	1129.065795898438	489.4196472167969	41.87431716918945	1096.749755859375	461.6600036621094	261.28173828125	1118.590576171875	272.7586975097656	42.08956146240234	1095.236328125	328.5469970703125	31.91920471191406	1038.437133789062	374.9223327636719	40.34101867675781	1141.772216796875	515.81494140625	38.47211074829102	1026.861938476562	331.7571105957031	486.7965698242188	770.835693359375	338.6948547363281	740.9345703125	769.3141479492188	624.7930908203125	211.8164978027344	599.4071655273438	384.6832885742188	379.1024780273438	742.4495849609375	579.17578125	31.95835113525391	674.771484375	628.3628540039062	77.80082702636719	691.6417236328125	576.3843383789062	115.827392578125	593.1825561523438	677.7183227539062	247.5368194580078	628.2127685546875	483.6893920898438	692.7907104492188	1265.2216796875	484.5255126953125	782.3916625976562	1271.316650390625	nan	nan	nan	
